<?xml version="1.0" encoding="utf-8"?>
<!-- Generator: Adobe Illustrator 15.1.0, SVG Export Plug-In . SVG Version: 6.00 Build 0)  -->
<!DOCTYPE svg PUBLIC "-//W3C//DTD SVG 1.1//EN" "http://www.w3.org/Graphics/SVG/1.1/DTD/svg11.dtd">
<svg version="1.1" id="Layer_1" xmlns="http://www.w3.org/2000/svg" xmlns:xlink="http://www.w3.org/1999/xlink" x="0px" y="0px"
	 width="22px" height="22px" viewBox="0 0 22 22" enable-background="new 0 0 22 22" xml:space="preserve">
<g>
	<rect x="3" y="-1" fill="none" width="16" height="16"/>
	<path fill="#4D4D4D" d="M19.78,2.681h-2.277V1.707c0-0.179-0.145-0.326-0.324-0.326h-2.277c-0.179,0-0.326,0.147-0.326,0.326v0.974
		H7.423V1.707c0-0.179-0.146-0.326-0.326-0.326H4.821c-0.179,0-0.326,0.147-0.326,0.326v0.974H2.22c-0.18,0-0.326,0.146-0.326,0.326
		v17.561c0,0.18,0.146,0.325,0.326,0.325h17.56c0.18,0,0.326-0.146,0.326-0.325V3.007C20.105,2.827,19.96,2.681,19.78,2.681
		L19.78,2.681z M15.228,2.032h1.626v1.949h-1.626V2.032z M5.146,2.032h1.625v1.949H5.146V2.032z M2.546,3.332h1.949v0.976
		c0,0.179,0.146,0.326,0.326,0.326h2.277c0.18,0,0.326-0.147,0.326-0.326V3.332h7.153v0.976c0,0.179,0.146,0.326,0.326,0.326h2.277
		c0.179,0,0.324-0.147,0.324-0.326V3.332h1.952v2.926H2.546V3.332z M2.546,20.241V6.909h16.909v13.332H2.546z M2.546,20.241"/>
	<path fill="#00A99D" d="M13.602,8.859H4.821v9.433h12.358V8.859H13.602z M11.325,9.511h2.277v2.276h-2.277V9.511z M13.602,14.714
		h-2.277v-2.276h2.277V14.714z M8.398,12.438h2.277v2.276H8.398V12.438z M8.398,9.511h2.277v2.276H8.398V9.511z M5.472,9.511h2.275
		v2.276H5.472V9.511z M5.472,12.438h2.275v2.276H5.472V12.438z M7.747,17.64H5.472v-2.276h2.275V17.64z M10.675,17.64H8.398v-2.276
		h2.277V17.64z M13.602,17.64h-2.277v-2.276h2.277V17.64z M16.529,17.64h-2.278v-2.276h2.278V17.64z M16.529,14.714h-2.278v-2.276
		h2.278V14.714z M16.529,9.511v2.276h-2.278V9.511H16.529z M16.529,9.511"/>
</g>
</svg>
