<?xml version="1.0" encoding="utf-8"?>
<!-- Generator: Adobe Illustrator 15.1.0, SVG Export Plug-In . SVG Version: 6.00 Build 0)  -->
<!DOCTYPE svg PUBLIC "-//W3C//DTD SVG 1.1//EN" "http://www.w3.org/Graphics/SVG/1.1/DTD/svg11.dtd">
<svg version="1.1" id="Layer_1" xmlns="http://www.w3.org/2000/svg" xmlns:xlink="http://www.w3.org/1999/xlink" x="0px" y="0px"
	 width="24px" height="24px" viewBox="0 0 24 24" enable-background="new 0 0 24 24" xml:space="preserve">
<g>
	<g>
		<path fill="#1A1A1A" d="M14.57,15.818l-0.15,0.616c-0.452,0.178-0.812,0.313-1.08,0.406c-0.269,0.093-0.582,0.141-0.938,0.141
			c-0.547,0-0.972-0.134-1.275-0.4c-0.303-0.267-0.454-0.605-0.454-1.016c0-0.159,0.011-0.322,0.034-0.488
			c0.023-0.167,0.06-0.354,0.11-0.564l0.563-1.996c0.052-0.192,0.094-0.373,0.129-0.544c0.033-0.171,0.051-0.327,0.051-0.468
			c0-0.255-0.053-0.434-0.158-0.533c-0.105-0.102-0.305-0.151-0.604-0.151c-0.145,0-0.295,0.023-0.446,0.067
			c-0.154,0.046-0.286,0.09-0.396,0.131l0.151-0.616c0.369-0.15,0.722-0.278,1.061-0.386c0.337-0.107,0.655-0.161,0.958-0.161
			c0.543,0,0.961,0.132,1.256,0.395c0.294,0.262,0.44,0.603,0.44,1.021c0,0.088-0.009,0.24-0.029,0.459s-0.058,0.42-0.114,0.602
			l-0.561,1.988c-0.046,0.16-0.088,0.343-0.124,0.549c-0.037,0.204-0.055,0.359-0.055,0.465c0,0.264,0.06,0.443,0.177,0.54
			c0.119,0.097,0.323,0.144,0.615,0.144c0.136,0,0.291-0.024,0.464-0.072C14.366,15.896,14.492,15.854,14.57,15.818L14.57,15.818z
			 M14.713,7.47c0,0.347-0.131,0.643-0.394,0.886c-0.261,0.244-0.577,0.366-0.945,0.366c-0.371,0-0.687-0.122-0.952-0.366
			c-0.264-0.243-0.396-0.539-0.396-0.886c0-0.346,0.133-0.643,0.396-0.889c0.265-0.246,0.582-0.369,0.952-0.369
			c0.368,0,0.685,0.123,0.945,0.369C14.582,6.827,14.713,7.124,14.713,7.47L14.713,7.47z M14.713,7.47"/>
	</g>
	<circle fill="none" stroke="#E5BF05" stroke-width="1.5" stroke-miterlimit="10" cx="12" cy="12" r="10.666"/>
</g>
</svg>
