<?xml version="1.0" encoding="utf-8"?>
<!-- Generator: Adobe Illustrator 15.1.0, SVG Export Plug-In . SVG Version: 6.00 Build 0)  -->
<!DOCTYPE svg PUBLIC "-//W3C//DTD SVG 1.1//EN" "http://www.w3.org/Graphics/SVG/1.1/DTD/svg11.dtd">
<svg version="1.1" id="Layer_1" xmlns="http://www.w3.org/2000/svg" xmlns:xlink="http://www.w3.org/1999/xlink" x="0px" y="0px"
	 width="18px" height="18px" viewBox="0 0 18 18" enable-background="new 0 0 18 18" xml:space="preserve">
<g>
	<path fill="#CCCCCC" d="M14.333,11.244h-2.479L9.05,14.863l-2.785-3.619H3.668L0.86,17.14H17.14L14.333,11.244z M14.333,11.244"/>
	<path fill="#1B1464" d="M12.657,2.354c-1.991-1.992-5.223-1.992-7.215,0C3.647,4.149,3.446,7.53,4.968,9.562l4.082,5.302
		l4.081-5.302C14.655,7.53,14.453,4.149,12.657,2.354L12.657,2.354z M9.101,7.597c-0.93,0-1.684-0.754-1.684-1.685
		c0-0.929,0.754-1.684,1.684-1.684c0.929,0,1.683,0.755,1.683,1.684C10.783,6.843,10.029,7.597,9.101,7.597L9.101,7.597z
		 M9.101,7.597"/>
</g>
<rect x="1" y="1" fill="none" width="16" height="16"/>
</svg>
