<?xml version="1.0" encoding="utf-8"?>
<!-- Generator: Adobe Illustrator 15.1.0, SVG Export Plug-In . SVG Version: 6.00 Build 0)  -->
<!DOCTYPE svg PUBLIC "-//W3C//DTD SVG 1.1//EN" "http://www.w3.org/Graphics/SVG/1.1/DTD/svg11.dtd">
<svg version="1.1" id="Layer_1" xmlns="http://www.w3.org/2000/svg" xmlns:xlink="http://www.w3.org/1999/xlink" x="0px" y="0px"
	 width="123px" height="72px" viewBox="0 0 123 72" enable-background="new 0 0 123 72" xml:space="preserve">
<path fill="none" stroke="#B3B3B3" stroke-miterlimit="10" d="M47,52.5h16.945h27.779c0,0,6.787-1.654,6.787-7.887
	c0-6.238-3.084-8.113-6.172-8.113c-3.086,0-22.22,0-22.22,0s-7.411,1.027-7.411-6.066c0-4.939,2.881-5.934,7.203-5.934
	c4.32,0,29.088,0,29.088,0"/>
<path fill="#4D4D4D" d="M104.482,13.283c-2.498-2.497-6.551-2.497-9.047,0c-2.254,2.251-2.507,6.491-0.596,9.038l5.116,6.648
	l5.12-6.648C106.986,19.774,106.732,15.534,104.482,13.283L104.482,13.283z M100.021,19.856c-1.166,0-2.11-0.945-2.11-2.113
	c0-1.166,0.944-2.109,2.11-2.109c1.165,0,2.112,0.943,2.112,2.109C102.133,18.911,101.186,19.856,100.021,19.856L100.021,19.856z
	 M100.021,19.856"/>
<g>
	<defs>
		<rect id="SVGID_1_" x="17.066" y="17.302" width="40.497" height="41.326"/>
	</defs>
	<clipPath id="SVGID_2_">
		<use xlink:href="#SVGID_1_"  overflow="visible"/>
	</clipPath>
	<path clip-path="url(#SVGID_2_)" fill="#9777A8" d="M50.293,43.257h-6.114l-6.917,8.928l-6.868-8.928h-6.405l-6.923,14.541h40.149
		L50.293,43.257z M50.293,43.257"/>
	<path clip-path="url(#SVGID_2_)" fill="#EFC700" d="M46.16,21.332c-4.911-4.911-12.882-4.911-17.794,0
		c-4.429,4.427-4.924,12.767-1.17,17.778l10.066,13.074L47.328,39.11C51.087,34.099,50.59,25.759,46.16,21.332L46.16,21.332z
		 M37.387,34.262c-2.293,0-4.152-1.858-4.152-4.157c0-2.291,1.859-4.15,4.152-4.15c2.292,0,4.149,1.859,4.149,4.15
		C41.537,32.403,39.679,34.262,37.387,34.262L37.387,34.262z M37.387,34.262"/>
</g>
</svg>
