<?xml version="1.0" encoding="utf-8"?>
<!-- Generator: Adobe Illustrator 15.1.0, SVG Export Plug-In . SVG Version: 6.00 Build 0)  -->
<!DOCTYPE svg PUBLIC "-//W3C//DTD SVG 1.1//EN" "http://www.w3.org/Graphics/SVG/1.1/DTD/svg11.dtd">
<svg version="1.1" id="Layer_1" xmlns="http://www.w3.org/2000/svg" xmlns:xlink="http://www.w3.org/1999/xlink" x="0px" y="0px"
	 width="22px" height="22px" viewBox="0 0 22 22" enable-background="new 0 0 22 22" xml:space="preserve">
<g>
	<path fill="#E7ECED" d="M19.642,12.261"/>
	<g>
		<path fill="#666666" d="M11,3.551c4.108,0,7.45,3.342,7.45,7.449s-3.342,7.451-7.45,7.451c-4.108,0-7.45-3.344-7.45-7.451
			S6.892,3.551,11,3.551 M11,2.356c-4.773,0-8.642,3.871-8.642,8.644c0,4.773,3.869,8.644,8.642,8.644
			c4.772,0,8.642-3.87,8.642-8.644C19.642,6.228,15.772,2.356,11,2.356L11,2.356z M11,2.356"/>
		<path fill="#7383BF" d="M11,4.11c-0.165,0-0.299,0.136-0.299,0.297v0.299c0,0.165,0.134,0.298,0.299,0.298
			c0.164,0,0.298-0.133,0.298-0.298V4.407C11.298,4.246,11.164,4.11,11,4.11L11,4.11z M11,4.11"/>
		<path fill="#7383BF" d="M11,16.926c-0.165,0-0.299,0.133-0.299,0.297v0.297c0,0.166,0.134,0.299,0.299,0.299
			c0.164,0,0.298-0.133,0.298-0.299v-0.297C11.298,17.059,11.164,16.926,11,16.926L11,16.926z M11,16.926"/>
		<path fill="#7383BF" d="M17.556,10.665h-0.298c-0.164,0-0.298,0.136-0.298,0.298c0,0.168,0.134,0.299,0.298,0.299h0.298
			c0.165,0,0.299-0.131,0.299-0.299C17.855,10.801,17.721,10.665,17.556,10.665L17.556,10.665z M17.556,10.665"/>
		<path fill="#7383BF" d="M4.74,10.665H4.444c-0.165,0-0.298,0.136-0.298,0.298c0,0.168,0.133,0.299,0.298,0.299H4.74
			c0.164,0,0.299-0.131,0.299-0.299C5.039,10.801,4.904,10.665,4.74,10.665L4.74,10.665z M4.74,10.665"/>
		<path fill="#7383BF" d="M15.425,6.119l-0.21,0.209c-0.117,0.116-0.117,0.307,0,0.421c0.059,0.059,0.135,0.087,0.21,0.087
			c0.078,0,0.154-0.028,0.21-0.087l0.212-0.211c0.117-0.116,0.117-0.303,0-0.419C15.73,5.999,15.542,5.999,15.425,6.119
			L15.425,6.119z M15.425,6.119"/>
		<path fill="#7383BF" d="M6.363,15.182l-0.209,0.206c-0.118,0.118-0.118,0.307,0,0.425c0.057,0.057,0.134,0.084,0.209,0.084
			c0.078,0,0.153-0.027,0.212-0.084L6.786,15.6c0.116-0.115,0.116-0.303,0-0.418C6.668,15.062,6.48,15.062,6.363,15.182
			L6.363,15.182z M6.363,15.182"/>
		<path fill="#7383BF" d="M15.635,15.182c-0.116-0.12-0.303-0.12-0.421,0c-0.117,0.115-0.117,0.303,0,0.418l0.21,0.213
			c0.059,0.057,0.136,0.084,0.21,0.084c0.077,0,0.154-0.027,0.212-0.084c0.117-0.118,0.117-0.307,0-0.425L15.635,15.182z
			 M15.635,15.182"/>
		<path fill="#7383BF" d="M6.575,6.119c-0.118-0.12-0.305-0.12-0.421,0c-0.118,0.116-0.118,0.303,0,0.419l0.209,0.211
			c0.059,0.059,0.136,0.087,0.212,0.087s0.152-0.028,0.211-0.087c0.116-0.114,0.116-0.305,0-0.421L6.575,6.119z M6.575,6.119"/>
		<path fill="none" stroke="#B3B3B3" stroke-width="0.75" stroke-miterlimit="10" d="M10.107,10.963H7.722 M11,10.069V6.792
			 M11.895,10.963c0,0.495-0.4,0.896-0.895,0.896c-0.494,0-0.893-0.401-0.893-0.896c0-0.491,0.399-0.894,0.893-0.894
			C11.495,10.069,11.895,10.472,11.895,10.963L11.895,10.963z M11.895,10.963"/>
	</g>
</g>
</svg>
