<?xml version="1.0" encoding="utf-8"?>
<!-- Generator: Adobe Illustrator 15.1.0, SVG Export Plug-In . SVG Version: 6.00 Build 0)  -->
<!DOCTYPE svg PUBLIC "-//W3C//DTD SVG 1.1//EN" "http://www.w3.org/Graphics/SVG/1.1/DTD/svg11.dtd">
<svg version="1.1" id="Layer_1" xmlns="http://www.w3.org/2000/svg" xmlns:xlink="http://www.w3.org/1999/xlink" x="0px" y="0px"
	 width="22px" height="22px" viewBox="0 0 22 22" enable-background="new 0 0 22 22" xml:space="preserve">
<path fill="#333333" d="M19.324,13.829v3.136h1.568v-4.702H2.884V5.839c0-0.204-0.077-0.39-0.229-0.553
	C2.501,5.118,2.316,5.036,2.1,5.036c-0.216,0-0.401,0.082-0.555,0.25C1.393,5.451,1.316,5.635,1.316,5.839v11.126h1.568v-3.136
	H19.324z M19.324,13.829"/>
<path fill="#666666" d="M3.935,9.807L3.926,10.97c0.354,0.007,13.315,0.022,13.315,0.022h2.906c0.484,0,0.726-0.196,0.726-0.593
	c0-0.394-0.242-0.593-0.726-0.593H3.935z M3.935,9.807"/>
</svg>
